<svg width="24" height="24" viewBox="0 0 24 24" fill="none" xmlns="http://www.w3.org/2000/svg">
<path fill-rule="evenodd" clip-rule="evenodd" d="M16.977 9.61047C16.977 13.1533 13.9583 16.2209 9.98852 16.2209C6.01872 16.2209 3 13.1533 3 9.61047C3 6.06765 6.01872 3 9.98852 3C13.9583 3 16.977 6.06765 16.977 9.61047ZM15.3433 17.7247C13.7957 18.6721 11.9587 19.2209 9.98852 19.2209C4.47201 19.2209 0 14.9182 0 9.61047C0 4.30275 4.47201 0 9.98852 0C15.505 0 19.977 4.30275 19.977 9.61047C19.977 11.9594 19.1012 14.1115 17.6465 15.781L23.9968 21.9156L21.8392 24L15.3433 17.7247Z" fill="black"/>
</svg>
